name C:\Users\u0101727\Documents\MyRepositories\paper-ad\predictivesimulations_2d/Results/PredSim_2D/IK_c29.mot
datacolumns 11
datarows 51
range 1.27586872 1.75551861
endheader
time	pelvis_tilt	pelvis_tx	pelvis_ty	hip_flexion_l	hip_flexion_r	knee_angle_l	knee_angle_r	ankle_angle_l	ankle_angle_r	lumbar_extension	
          1.27586872	        -15.09825794	          1.69358688	          0.90065587	         33.18726961	         10.36415839	        -37.57059256	         -7.29573969	         15.70153255	         11.30047978	          9.41564228	
          1.28546172	        -15.09760164	          1.70557342	          0.89979806	         34.15579954	          9.58842886	        -36.09718539	         -7.34315967	         15.98770001	         11.31048748	          9.37577410	
          1.29505472	        -15.09802040	          1.71761553	          0.89888223	         35.06308324	          8.83037226	        -34.50720216	         -7.42634211	         16.19294101	         11.30828916	          9.33917105	
          1.30464771	        -15.09989358	          1.72971976	          0.89790726	         35.90561644	          8.08897128	        -32.80870117	         -7.54434347	         16.32636542	         11.29750397	          9.30614704	
          1.31424071	        -15.10353639	          1.74189425	          0.89687206	         36.67887348	          7.36388437	        -31.01328823	         -7.69750077	         16.39674910	         11.27899442	          9.27708470	
          1.32383371	        -15.10902429	          1.75415096	          0.89577929	         37.37618183	          6.65597723	        -29.14683214	         -7.88941122	         16.41223418	         11.25113594	          9.25257357	
          1.33342671	        -15.11639346	          1.76650807	          0.89464137	         37.98464718	          5.96725881	        -27.24321195	         -8.12623431	         16.38010998	         11.20782942	          9.23391191	
          1.34301970	        -15.12566843	          1.77898703	          0.89347999	         38.48855020	          5.30088757	        -25.33459975	         -8.41506952	         16.30677421	         11.13662187	          9.22281113	
          1.35261270	        -15.13653469	          1.79160659	          0.89231764	         38.87846472	          4.66128543	        -23.44887021	         -8.76439729	         16.19761890	         11.02122120	          9.22045207	
          1.36220570	        -15.14820795	          1.80438130	          0.89117226	         39.15422341	          4.05368079	        -21.60776754	         -9.18398121	         16.05677664	         10.84508586	          9.22724233	
          1.37179870	        -15.15948388	          1.81732399	          0.89005811	         39.32269600	          3.48334221	        -19.83282594	         -9.68407647	         15.88685762	         10.59390705	          9.24310953	
          1.38139170	        -15.16913623	          1.83044850	          0.88898732	         39.39115332	          2.95517145	        -18.13910865	        -10.27440227	         15.68906429	         10.25484651	          9.26813614	
          1.39098469	        -15.17601519	          1.84376929	          0.88796908	         39.36643834	          2.47360484	        -16.53853052	        -10.96354743	         15.46330263	          9.81577822	          9.30255931	
          1.40057769	        -15.17886143	          1.85730059	          0.88700867	         39.25615519	          2.04325260	        -15.04820120	        -11.76051169	         15.20829894	          9.26587034	          9.34651905	
          1.41017069	        -15.17640684	          1.87105681	          0.88610713	         39.06537879	          1.66961696	        -13.68279327	        -12.67557262	         14.92204012	          8.59418502	          9.40030646	
          1.41976369	        -15.16724658	          1.88505155	          0.88526017	         38.79885759	          1.35860938	        -12.46211211	        -13.71965042	         14.60165298	          7.79029282	          9.46417597	
          1.42935669	        -15.14982633	          1.89929660	          0.88445667	         38.46185373	          1.11587653	        -11.41484048	        -14.90294145	         14.24334535	          6.84668881	          9.53828755	
          1.43894968	        -15.12270692	          1.91380308	          0.88367751	         38.05465298	          0.94619923	        -10.57176297	        -16.23474547	         13.84275950	          5.76339658	          9.62323489	
          1.44854268	        -15.08469728	          1.92857918	          0.88289114	         37.57025065	          0.85251825	         -9.96647919	        -17.72804471	         13.39491295	          4.56274188	          9.72007252	
          1.45813568	        -15.03564155	          1.94361866	          0.88205377	         36.99064757	          0.83756600	         -9.64719322	        -19.38878017	         12.89500948	          3.25823929	          9.82994557	
          1.46772868	        -14.97809625	          1.95890453	          0.88118884	         36.24774220	          0.90857168	         -9.73448517	        -21.21386832	         12.34098362	          1.82999905	          9.95683234	
          1.47732168	        -14.92027015	          1.97425097	          0.88042315	         35.38469401	          1.07017054	        -10.04864544	        -23.18475788	         11.77216778	          0.36348166	         10.09130556	
          1.48691467	        -14.87313102	          1.98931740	          0.87998594	         34.52670587	          1.34920447	        -10.32875336	        -25.20906235	         11.22248829	         -0.91988354	         10.21012570	
          1.49650767	        -14.84523545	          2.00385686	          0.88013886	         33.71103934	          1.77392607	        -10.58698941	        -27.14664501	         10.69179906	         -1.92216340	         10.29938350	
          1.50610067	        -14.83892792	          2.01780637	          0.88103777	         32.94017187	          2.34023187	        -10.81825734	        -28.93477842	         10.19472520	         -2.67270777	         10.35793934	
          1.51569367	        -14.84952477	          2.03124908	          0.88264209	         32.19558435	          3.03135770	        -11.01055707	        -30.59413099	          9.74753635	         -3.18095219	         10.39193316	
          1.52528666	        -14.87043539	          2.04430912	          0.88474224	         31.45616297	          3.82680452	        -11.15495230	        -32.15390663	          9.36170971	         -3.45966118	         10.40838504	
          1.53487966	        -14.89629633	          2.05709394	          0.88710574	         30.70509644	          4.71102135	        -11.24461364	        -33.63174740	          9.04351053	         -3.52439706	         10.41260827	
          1.54447266	        -14.92367051	          2.06967776	          0.88954991	         29.93292722	          5.67197703	        -11.27760221	        -35.03607811	          8.79455149	         -3.39018182	         10.40779993	
          1.55406566	        -14.95066485	          2.08210755	          0.89195114	         29.13513062	          6.70066016	        -11.25434873	        -36.36815087	          8.61379664	         -3.07331996	         10.39571815	
          1.56365866	        -14.97631774	          2.09441337	          0.89423018	         28.31015823	          7.78966431	        -11.17685463	        -37.62488386	          8.49859955	         -2.59055020	         10.37737317	
          1.57325165	        -15.00013979	          2.10661554	          0.89633663	         27.45837916	          8.93281258	        -11.04859554	        -38.80140914	          8.44521112	         -1.95874130	         10.35338033	
          1.58284465	        -15.02186384	          2.11872912	          0.89823804	         26.58144164	         10.12456316	        -10.87440633	        -39.89162559	          8.44908503	         -1.19483871	         10.32419004	
          1.59243765	        -15.04131821	          2.13076653	          0.89991342	         25.68193690	         11.35955590	        -10.66031597	        -40.88878489	          8.50507387	         -0.31601059	         10.29020923	
          1.60203065	        -15.05837920	          2.14273867	          0.90135014	         24.76316617	         12.63236926	        -10.41334285	        -41.78570063	          8.60759110	          0.66035299	         10.25185410	
          1.61162365	        -15.07296039	          2.15465502	          0.90254331	         23.82909490	         13.93763952	        -10.14145751	        -42.57472908	          8.75082054	          1.71668743	         10.20951734	
          1.62121664	        -15.08504552	          2.16652322	          0.90349619	         22.88415841	         15.27034001	         -9.85250462	        -43.24778331	          8.92888746	          2.83532299	         10.16351943	
          1.63080964	        -15.09475625	          2.17835053	          0.90421941	         21.93227606	         16.62453275	         -9.55356500	        -43.79728940	          9.13531229	          3.99845434	         10.11432961	
          1.64040264	        -15.10225701	          2.19014319	          0.90472996	         20.97761676	         17.99437848	         -9.25217531	        -44.21552972	          9.36243184	          5.18823998	         10.06237795	
          1.64999564	        -15.10769174	          2.20190674	          0.90504857	         20.02472901	         19.37436451	         -8.95616112	        -44.49473537	          9.60219889	          6.38686246	         10.00800931	
          1.65958864	        -15.11121072	          2.21364715	          0.90519669	         19.07835624	         20.75803558	         -8.67377104	        -44.62791707	          9.84668230	          7.57653079	          9.95160473	
          1.66918163	        -15.11303631	          2.22537149	          0.90519459	         18.14171431	         22.13846802	         -8.41059494	        -44.60943576	         10.08854944	          8.73957398	          9.89370053	
          1.67877463	        -15.11348227	          2.23708806	          0.90506039	         17.21570472	         23.50875426	         -8.16809754	        -44.43520822	         10.32113907	          9.85862548	          9.83503136	
          1.68836763	        -15.11282866	          2.24880556	          0.90480960	         16.30180184	         24.86102114	         -7.94917309	        -44.10317301	         10.53767984	         10.91695036	          9.77632357	
          1.69796063	        -15.11132037	          2.26053219	          0.90445531	         15.40215530	         26.18729020	         -7.75743023	        -43.61240400	         10.73213032	         11.89910320	          9.71819843	
          1.70755362	        -15.10919934	          2.27227704	          0.90400818	         14.51833798	         27.47873033	         -7.59592591	        -42.96595680	         10.89988256	         12.79168015	          9.66139257	
          1.71714662	        -15.10672502	          2.28404850	          0.90347732	         13.65127824	         28.72736984	         -7.46666285	        -42.16828991	         11.03801465	         13.58444676	          9.60659306	
          1.72673962	        -15.10416280	          2.29585320	          0.90287079	         12.80182492	         29.92698612	         -7.37070482	        -41.22376797	         11.14541437	         14.27130775	          9.55429024	
          1.73633262	        -15.10175182	          2.30769745	          0.90219508	         11.97067879	         31.07187151	         -7.30971578	        -40.13908724	         11.22281150	         14.85065389	          9.50492539	
          1.74592562	        -15.09971338	          2.31958558	          0.90145552	         11.15816099	         32.15909460	         -7.28459079	        -38.91969453	         11.27301986	         15.32530509	          9.45868626	
          1.75551861	        -15.09825794	          2.33152124	          0.90065587	         10.36415839	         33.18726961	         -7.29573969	        -37.57059256	         11.30047978	         15.70153255	          9.41564228	
